<?xml version="1.0" encoding="UTF-8" standalone="no"?>
<svg width="19px" height="30px" viewBox="0 0 19 30" version="1.1" xmlns="http://www.w3.org/2000/svg" xmlns:xlink="http://www.w3.org/1999/xlink">
    <!-- Generator: Sketch 3.6.1 (26313) - http://www.bohemiancoding.com/sketch -->
    <title>female</title>
    <desc>Created with Sketch.</desc>
    <defs></defs>
    <g id="Page-1" stroke="none" stroke-width="1" fill="none" fill-rule="evenodd">
        <g id="Artboard-1" transform="translate(-28.000000, -132.000000)" fill="#000000">
            <g id="female" transform="translate(28.000000, 132.000000)">
                <path d="M18.6516667,9.62908163 C18.6516667,4.42193878 14.478,0.186122449 9.34890476,0.186122449 C4.21980952,0.186122449 0.0467460317,4.42193878 0.0467460317,9.62908163 C0.0467460317,14.3935714 3.54214286,18.3434694 8.06746032,18.9795918 L8.06746032,21.8458163 L4.06207937,21.8458163 C3.35455556,21.8458163 2.78033333,22.4277551 2.78033333,23.1462245 C2.78033333,23.8646939 3.35515873,24.4466327 4.06207937,24.4466327 L8.06746032,24.4466327 L8.06746032,28.5128571 C8.06746032,29.2307143 8.64168254,29.8135714 9.34860317,29.8135714 C10.0567302,29.8135714 10.6306508,29.2307143 10.6306508,28.5128571 L10.6306508,24.4466327 L14.6354286,24.4466327 C15.3435556,24.4466327 15.9171746,23.8646939 15.9171746,23.1462245 C15.9171746,22.4277551 15.3435556,21.8458163 14.6354286,21.8458163 L10.6306508,21.8458163 L10.6306508,18.9795918 C15.1559683,18.3434694 18.6516667,14.3938776 18.6516667,9.62908163 L18.6516667,9.62908163 Z M2.6102381,9.62908163 C2.6102381,5.85122449 5.62761905,2.78846939 9.34860317,2.78846939 C13.0710952,2.78846939 16.0875714,5.85122449 16.0875714,9.62908163 C16.0875714,13.4060204 13.0710952,16.4690816 9.34860317,16.4690816 C5.62761905,16.4690816 2.6102381,13.4060204 2.6102381,9.62908163 L2.6102381,9.62908163 Z" id="Shape"></path>
            </g>
        </g>
    </g>
</svg>