<?xml version="1.0" encoding="UTF-8" standalone="no"?>
<svg width="19px" height="20px" viewBox="0 0 19 20" version="1.1" xmlns="http://www.w3.org/2000/svg" xmlns:xlink="http://www.w3.org/1999/xlink">
    <!-- Generator: Sketch 3.6.1 (26313) - http://www.bohemiancoding.com/sketch -->
    <title>male</title>
    <desc>Created with Sketch.</desc>
    <defs></defs>
    <g id="Page-1" stroke="none" stroke-width="1" fill="none" fill-rule="evenodd">
        <g id="Artboard-1" transform="translate(-28.000000, -172.000000)" fill="#1D1D1B">
            <g id="male" transform="translate(28.000000, 172.000000)">
                <path d="M18.9632498,0.968143203 C18.9570715,0.937787812 18.9459932,0.909585286 18.9372584,0.880091042 C18.9270323,0.845214635 18.9187236,0.809477083 18.9050888,0.775677109 C18.8903888,0.739939557 18.8705757,0.707861875 18.85268,0.674923047 C18.8386191,0.649303958 18.8273278,0.621747292 18.8107104,0.596989349 C18.7355059,0.483533385 18.638997,0.38536276 18.5262968,0.309366641 C18.5026489,0.293866016 18.4768706,0.28267112 18.4523705,0.268892786 C18.4184966,0.249732292 18.3856878,0.229495365 18.3496834,0.214855885 C18.3173007,0.201077552 18.2832137,0.192896667 18.2495528,0.182778203 C18.2190875,0.173736172 18.1901135,0.16168013 18.158583,0.156082682 C18.0938177,0.142519635 18.027561,0.136061042 17.9617305,0.136061042 C17.9606652,0.136061042 17.959387,0.135199896 17.9581087,0.135199896 L13.6874309,0.135199896 C13.1211602,0.135199896 12.6622637,0.598711641 12.6622637,1.17137362 C12.6622637,1.74295917 13.1211602,2.20754734 13.6874309,2.20754734 L15.483817,2.20754734 L11.9227883,5.80627578 C10.6377076,4.81961794 9.07843933,4.28549224 7.43714919,4.28549224 L7.43693615,4.28549224 C5.44966273,4.28549224 3.58084172,5.06698208 2.17560422,6.48787271 C-0.724988361,9.41856727 -0.725201405,14.1888846 2.17560422,17.1206556 C3.58084172,18.5406851 5.44966273,19.3219596 7.43672311,19.3219596 C9.42420956,19.3219596 11.2928175,18.5404698 12.697629,17.1204403 C15.3525819,14.4371099 15.5758519,10.2155577 13.3712737,7.27194599 L16.9329415,3.67149526 L16.9329415,5.49001997 C16.9329415,6.06160552 17.391838,6.5261937 17.9581087,6.5261937 C18.5241663,6.5261937 18.9832759,6.06160552 18.9832759,5.49001997 L18.9832759,1.17438763 L18.9832759,1.1733112 C18.9832759,1.10463482 18.9764585,1.03595844 18.9632498,0.968143203 L18.9632498,0.968143203 Z M11.2480783,15.6556312 C10.1958545,16.7191464 8.81596926,17.2506886 7.43672311,17.2506886 C6.05747695,17.2506886 4.67780472,16.7193616 3.62536789,15.6556312 C1.52028121,13.5283858 1.52070729,10.0790661 3.62536789,7.95268177 C4.67780472,6.88916667 6.05747695,6.35676326 7.43693615,6.35676326 C8.81660839,6.35676326 10.1954285,6.88916667 11.2480783,7.95268177 C13.3527389,10.0790661 13.3527389,13.5283858 11.2480783,15.6556312 L11.2480783,15.6556312 Z" id="Shape"></path>
            </g>
        </g>
    </g>
</svg>