<?xml version="1.0" encoding="UTF-8" standalone="no"?>
<svg width="9px" height="24px" viewBox="0 0 9 24" version="1.1" xmlns="http://www.w3.org/2000/svg" xmlns:xlink="http://www.w3.org/1999/xlink">
    <!-- Generator: Sketch 3.6.1 (26313) - http://www.bohemiancoding.com/sketch -->
    <title>men</title>
    <desc>Created with Sketch.</desc>
    <defs></defs>
    <g id="Page-1" stroke="none" stroke-width="1" fill="none" fill-rule="evenodd">
        <g id="Artboard-1" transform="translate(-32.000000, -165.000000)" fill="#000000">
            <g id="men" transform="translate(32.000000, 165.000000)">
                <g id="Group">
                    <ellipse id="Oval" cx="4.29110526" cy="1.95816" rx="1.93239474" ry="1.95816"></ellipse>
                    <path d="M2.00652632,22.90224 C2.00652632,23.508 2.49205263,24 3.08984211,24 C3.68881579,24 4.17363158,23.508 4.17363158,22.90224 L4.17457895,13.69248 L4.65702632,13.69248 L4.65394737,22.90224 C4.65394737,23.508 5.139,24 5.73726316,24 C6.33552632,24 6.82034211,23.508 6.82034211,22.90224 L6.82507895,7.02432 L7.30018421,7.02432 L7.30018421,12.87552 C7.30018421,14.05272 8.8155,14.05272 8.81218421,12.87552 L8.81218421,6.89952 C8.81218421,5.5992 8.05807895,4.3248 6.55673684,4.3248 L2.22536842,4.32288 C0.857131579,4.32288 0,5.45328 0,6.86376 L0,12.87576 C0,14.04432 1.52360526,14.04432 1.52360526,12.87576 L1.52360526,7.02456 L2.00865789,7.02456 L2.00652632,22.90224 L2.00652632,22.90224 Z" id="Shape"></path>
                </g>
            </g>
        </g>
    </g>
</svg>