<?xml version="1.0" encoding="UTF-8" standalone="no"?>
<svg width="11px" height="24px" viewBox="0 0 11 24" version="1.1" xmlns="http://www.w3.org/2000/svg" xmlns:xlink="http://www.w3.org/1999/xlink">
    <!-- Generator: Sketch 3.6.1 (26313) - http://www.bohemiancoding.com/sketch -->
    <title>woman</title>
    <desc>Created with Sketch.</desc>
    <defs></defs>
    <g id="Page-1" stroke="none" stroke-width="1" fill="none" fill-rule="evenodd">
        <g id="Artboard-1" transform="translate(-31.000000, -130.000000)" fill="#000000">
            <g id="woman" transform="translate(31.000000, 130.000000)">
                <g id="Group">
                    <path d="M7.20265957,4.33128 C8.536,4.33128 9.07687234,5.45808 9.27885106,6.0792 L10.9169149,11.60112 C11.2436383,12.78888 9.77034043,13.28064 9.41904255,12.12312 L7.94504255,7.05312 L7.51604255,7.05312 L10.0708511,16.07184 L7.71708511,16.07184 L7.71708511,23.10288 C7.71708511,24.30192 5.95848936,24.29592 5.95848936,23.10288 L5.95848936,16.02576 L5.24161702,16.02576 L5.24278723,23.09304 C5.24278723,24.30192 3.47693617,24.30192 3.47693617,23.09304 L3.47646809,16.07184 L1.11521277,16.07184 L3.65012766,7.05312 L3.25365957,7.05312 L1.77942553,12.14112 C1.4283617,13.25016 -0.0578085106,12.79488 0.282489362,11.6064 L1.91914894,6.0792 C2.09444681,5.4492 2.63180851,4.33128 3.97755319,4.33128 L7.20265957,4.33128 L7.20265957,4.33128 Z" id="Shape"></path>
                    <ellipse id="Oval" cx="5.59946809" cy="1.95936" rx="1.9107234" ry="1.95936"></ellipse>
                </g>
            </g>
        </g>
    </g>
</svg>