<?xml version="1.0" encoding="UTF-8" standalone="no"?>
<svg width="25px" height="25px" viewBox="0 0 25 25" version="1.1" xmlns="http://www.w3.org/2000/svg" xmlns:xlink="http://www.w3.org/1999/xlink" xmlns:sketch="http://www.bohemiancoding.com/sketch/ns">
    <!-- Generator: Sketch 3.3.2 (12043) - http://www.bohemiancoding.com/sketch -->
    <title>globe</title>
    <desc>Created with Sketch.</desc>
    <defs></defs>
    <g id="Page-1" stroke="none" stroke-width="1" fill="none" fill-rule="evenodd" sketch:type="MSPage">
        <g id="Artboard-1" sketch:type="MSArtboardGroup" transform="translate(-24.000000, -18.000000)" fill="#000000">
            <g id="globe" sketch:type="MSLayerGroup" transform="translate(24.000000, 18.000000)">
                <path d="M12.5,0 C5.61111111,0 0,5.61111111 0,12.5 C0,19.3888889 5.61111111,25 12.5,25 C19.3888889,25 25,19.3888889 25,12.5 C25,5.61111111 19.3888889,0 12.5,0 L12.5,0 Z M14.25,1.91666667 C14.0833333,2.41666667 13.2222222,2.08333333 12.8611111,2.08333333 C13.1388889,1.97222222 13.5555556,1.83333333 13.8055556,1.63888889 C13.8333333,1.61111111 13.8333333,1.61111111 13.8611111,1.58333333 C14.0277778,1.61111111 14.1666667,1.63888889 14.3333333,1.66666667 C14.1944444,1.72222222 14.0555556,1.77777778 13.9166667,1.86111111 C14.0277778,1.88888889 14.1388889,1.88888889 14.25,1.91666667 L14.25,1.91666667 Z M9.88888889,2.13888889 C10.0833333,2.33333333 10.2777778,2.02777778 10.4722222,1.94444444 C10.8888889,1.72222222 11.4722222,1.72222222 11.9444444,1.61111111 C11.8611111,1.83333333 11.1944444,1.75 10.9444444,1.83333333 C10.6388889,1.94444444 10.7777778,2.02777778 10.5833333,2.36111111 C10.6666667,2.36111111 10.7777778,2.41666667 10.8611111,2.38888889 L10.8611111,2.44444444 C10.6666667,2.41666667 10.4722222,2.33333333 10.4166667,2.58333333 C10.1666667,2.19444444 9.97222222,2.22222222 9.69444444,2.58333333 C9.97222222,2.75 10.25,2.91666667 10.0277778,3.19444444 C9.75,3.5 9.61111111,3.11111111 9.86111111,2.94444444 C9.61111111,2.83333333 9.41666667,2.63888889 9.22222222,2.88888889 C9.30555556,2.88888889 9.38888889,2.91666667 9.47222222,2.91666667 C9.41666667,2.97222222 9.38888889,3.19444444 9.33333333,3.22222222 C9.22222222,3.27777778 8.83333333,3.13888889 8.72222222,3.13888889 C8.41666667,3.11111111 8.13888889,3.11111111 7.83333333,3.13888889 C7.88888889,3.5 7.47222222,3.16666667 7.33333333,3.05555556 C7.61111111,2.77777778 7.91666667,2.88888889 8.25,2.91666667 C8.5,2.94444444 8.88888889,2.94444444 8.91666667,2.61111111 C8.63888889,2.55555556 8.5,2.55555556 8.36111111,2.36111111 C8.36111111,2.33333333 8.33333333,2.30555556 8.33333333,2.30555556 C8.83333333,2.11111111 9.36111111,1.94444444 9.88888889,1.80555556 C9.80555556,1.94444444 9.77777778,2.05555556 9.88888889,2.13888889 L9.88888889,2.13888889 Z M1.5,12.5 C1.5,9.88888889 2.41666667,7.5 3.94444444,5.61111111 C4.13888889,5.75 4.33333333,5.91666667 4.41666667,5.97222222 C4.61111111,6.13888889 4.69444444,6.33333333 4.80555556,6.52777778 C4.80555556,6.52777778 4.91666667,6.69444444 4.94444444,6.77777778 C5.08333333,6.91666667 5.16666667,7.05555556 5.19444444,7.22222222 C5.22222222,7.41666667 5.13888889,7.61111111 5.13888889,7.83333333 C5.08333333,8.5 5.16666667,9.11111111 5.69444444,9.58333333 C5.83333333,9.72222222 6.02777778,9.77777778 6.16666667,9.91666667 C6.30555556,10.0555556 6.30555556,10.1666667 6.38888889,10.3055556 C6.61111111,10.6944444 6.94444444,11.0833333 7.22222222,11.4444444 C7.47222222,11.7777778 7.55555556,11.6944444 7.33333333,11.3611111 C7.16666667,11.1388889 6.97222222,10.9166667 6.83333333,10.6666667 C6.83333333,10.6388889 6.69444444,10.3055556 6.72222222,10.3333333 C7.08333333,10.4166667 7.16666667,10.6666667 7.41666667,10.9722222 C7.63888889,11.2777778 7.86111111,11.4444444 8,11.7777778 C8.16666667,12.1944444 8.41666667,12.3888889 8.80555556,12.5833333 C9,12.6666667 9.33333333,12.9166667 9.55555556,12.9444444 C9.80555556,12.9722222 9.94444444,12.8055556 10.1666667,12.9166667 C10.3333333,13 10.4444444,13.2222222 10.6388889,13.3055556 C10.8333333,13.3611111 10.9444444,13.2777778 11.1388889,13.4166667 C11.3611111,13.5555556 11.4166667,13.8055556 11.6111111,13.9444444 C11.75,14.0555556 11.9444444,14.1944444 12.1388889,14.2222222 C12.2777778,14.25 12.4166667,14.1388889 12.5277778,14.1944444 C12.75,14.2777778 12.8055556,14.5555556 12.75,14.7777778 C12.6666667,15.0277778 12.4444444,15.1944444 12.3333333,15.4444444 C12.25,15.6666667 12.3055556,15.8611111 12.2777778,16.0833333 C12.25,16.3055556 12.0555556,16.0833333 12.25,16.4722222 C12.3333333,16.6388889 12.4444444,16.8055556 12.5555556,16.9722222 C12.7777778,17.3055556 12.9166667,17.5833333 13.1944444,17.8333333 C13.3888889,18.0277778 13.8333333,18.2222222 13.9166667,18.5 C14,18.75 13.9444444,19.2777778 13.8888889,19.5277778 C13.8055556,20.0555556 13.8055556,20.6944444 13.6666667,21.1944444 C13.5277778,21.6666667 13.3611111,21.8333333 13.4722222,22.3333333 C13.5277778,22.5555556 13.5555556,22.4444444 13.4722222,22.75 C13.4444444,22.8333333 13.4722222,22.8611111 13.4444444,22.9444444 C13.3888889,23.1111111 13.2222222,23.2222222 13.1388889,23.4166667 C13.3611111,23.4166667 13.3611111,23.5 13.3333333,23.5833333 C13.0277778,23.6111111 12.75,23.6388889 12.4444444,23.6388889 C6.44444444,23.5 1.5,18.5555556 1.5,12.5 L1.5,12.5 Z M14.5833333,23.3055556 C14.5277778,23.25 14.4722222,23.1666667 14.4722222,23.1388889 C14.4722222,23.0833333 14.6944444,22.7777778 14.7222222,22.7222222 C14.7777778,22.6111111 14.8055556,22.3611111 14.8888889,22.2777778 C15,22.1388889 15.2777778,22.1944444 15.2222222,21.8888889 C15.8055556,21.8888889 16.0555556,21.8055556 16.1388889,21.1944444 C16.0277778,21.1388889 16.0555556,21.1666667 16.0277778,21.0833333 C16.0555556,21.1944444 16.4722222,21.0277778 16.5,21.1111111 C16.5277778,21.1666667 17.0555556,20.4444444 17.1111111,20.3888889 C17.25,20.2222222 17.3888889,20.1111111 17.4722222,19.9166667 C17.5,19.8333333 17.5555556,19.6111111 17.6388889,19.5 C17.6388889,19.5277778 17.6388889,19.5277778 17.6111111,19.5555556 C17.8055556,19.25 18.0277778,19.3055556 18.3055556,19.1666667 C18.5833333,19.0555556 18.3888889,19.0833333 18.5833333,18.8888889 C18.8333333,18.6666667 18.8611111,18.8055556 18.9444444,18.4166667 C19,18.1388889 18.9166667,17.8888889 19.0277778,17.6666667 C19.1388889,17.3611111 19.3888889,17.25 19.5833333,17 C19.7222222,16.8055556 19.8611111,16.4722222 19.6666667,16.2777778 C19.5277778,16.1111111 19.0555556,15.9722222 18.8611111,15.9166667 C18.6111111,15.8611111 18.3333333,15.8611111 18.1111111,15.75 C17.8333333,15.6388889 17.6388889,15.3611111 17.5,15.8055556 C17.4444444,15.7777778 17.2777778,15.6666667 17.2777778,15.6111111 C17.2777778,15.7222222 17.5277778,15.5277778 17.5833333,15.4722222 C17.4722222,15.4722222 17.0833333,15.5555556 17.0277778,15.5277778 C17.0555556,15.4166667 17.25,15.1666667 17.25,15.1388889 C17.2777778,14.8611111 16.8888889,14.5555556 16.6666667,14.5 C16.3888889,14.4166667 16.2222222,14.4444444 15.9722222,14.2777778 C15.6666667,14.0555556 15.3888889,13.8055556 15,13.7777778 C14.9166667,13.7777778 14.8333333,13.8055556 14.75,13.8055556 C14.5555556,13.7777778 14.4722222,13.6388889 14.3055556,13.6111111 C14.0833333,13.5555556 14,13.75 13.8888889,13.75 C13.6944444,13.75 13.6666667,13.5555556 13.3888889,13.7222222 C12.9722222,13.9722222 13.1944444,14.1111111 12.75,14 C12.5,13.9444444 12.2222222,14.0833333 12,13.9166667 C11.7777778,13.7777778 11.75,13.3611111 11.9444444,13.1944444 C11.8333333,13.2777778 11.8333333,13 11.7777778,12.9444444 C11.6666667,12.8611111 11.4722222,12.9444444 11.3333333,12.9166667 C11.1388889,12.8611111 11.0277778,12.8611111 11.0833333,12.6666667 C11.1388889,12.4722222 11.6666667,11.9444444 11.1111111,11.9444444 C10.8055556,11.9444444 10.7222222,12.3888889 10.4166667,12.4444444 C10.0833333,12.5 9.77777778,12.3888889 9.58333333,12.0833333 C9.22222222,11.4444444 9.80555556,10.6666667 10.4166667,10.6111111 C10.8888889,10.5555556 11.5833333,10.2222222 11.9444444,10.75 C12.0555556,10.8888889 12.3055556,11.5 12.4166667,11.1111111 C12.4444444,11 12.3055556,10.5 12.2777778,10.2777778 C12.3611111,10.1388889 12.5277778,10.0277778 12.6388889,9.91666667 C12.6111111,9.91666667 12.6111111,9.94444444 12.5833333,9.97222222 C12.6944444,9.86111111 13.0277778,9.69444444 13.0833333,9.52777778 C13.1111111,9.44444444 12.9722222,9.30555556 13.0555556,9.19444444 C13.1111111,9.08333333 13.25,9.13888889 13.3055556,9.08333333 C13.3888889,9 13.3888889,8.83333333 13.4722222,8.72222222 C13.5555556,8.61111111 13.7222222,8.61111111 13.8055556,8.52777778 C14,8.36111111 14.0555556,8.13888889 14.2777778,8.05555556 C14.5,7.91666667 14.7222222,7.66666667 15,7.77777778 C14.8888889,7.88888889 14.6388889,7.97222222 14.5833333,8.05555556 C14.5277778,8.13888889 14.9444444,8.08333333 15,8.05555556 C15.2222222,7.97222222 15.4166667,7.77777778 15.6388889,7.66666667 C15.9722222,7.44444444 16.3888889,7.41666667 16.8055556,7.5 C16.9444444,7.52777778 16.5833333,7 16.5277778,6.97222222 C16.3888889,6.80555556 16.3611111,6.66666667 16.1111111,6.86111111 C16.0555556,6.91666667 15.9722222,7.13888889 15.9166667,7.22222222 C15.7777778,7.5 15.8055556,7.44444444 15.4722222,7.61111111 C15.5,7.61111111 15.5,7.58333333 15.5277778,7.58333333 C15.3055556,7.63888889 15.0555556,7.72222222 14.9722222,7.44444444 C14.9444444,7.33333333 15.0833333,7.19444444 15,7.11111111 C14.8333333,6.88888889 14.2777778,7.36111111 14.0833333,7.41666667 C14.1944444,6.61111111 15.1388889,7.02777778 15.6388889,6.88888889 C15.7777778,6.83333333 16.3055556,6.63888889 16.3333333,6.52777778 C16.3888889,6.33333333 15.9166667,6.02777778 15.8333333,5.94444444 C15.6111111,5.75 15.5,5.63888889 15.3611111,5.36111111 C15.2222222,5.05555556 15.1388889,4.72222222 14.8055556,4.97222222 C14.6944444,5.05555556 14.7777778,5.25 14.5555556,5.27777778 C14.4166667,5.30555556 14.2777778,5.13888889 14.1944444,5.05555556 C14.0833333,4.94444444 13.9444444,4.63888889 13.75,4.61111111 C13.5555556,4.58333333 13.0555556,4.33333333 12.8333333,4.5 C12.6388889,4.63888889 12.8611111,5.13888889 12.9166667,5.30555556 C13.0277778,5.69444444 13.1111111,5.69444444 12.7777778,5.94444444 C12.6111111,6.05555556 12.5277778,5.94444444 12.5833333,6.25 C12.6111111,6.41666667 12.8055556,6.44444444 12.6666667,6.58333333 C12.5833333,6.66666667 12.3888889,6.66666667 12.3055556,6.61111111 C12.0277778,6.47222222 12.2777778,6.30555556 12.1388889,6.11111111 C12.0277778,5.97222222 11.4722222,5.86111111 11.3055556,5.77777778 C10.8888889,5.58333333 9.77777778,5.38888889 10.1388889,4.75 C10.2222222,4.58333333 10.5833333,4.30555556 10.7222222,4.22222222 C10.8888889,4.11111111 11.0833333,4.08333333 11.2222222,3.94444444 C11.3055556,3.86111111 11.3055556,3.63888889 11.3611111,3.58333333 C11.4444444,3.5 11.7222222,3.52777778 11.8888889,3.55555556 C12.5277778,3.41666667 11.9444444,2.5 12.7777778,2.66666667 C13,2.72222222 13.25,2.94444444 13.4444444,3.08333333 C13.6666667,3.22222222 13.7222222,3.22222222 13.6666667,3.44444444 C13.6388889,3.5 13.4166667,3.72222222 13.3611111,3.77777778 C13.25,3.86111111 13.0555556,3.91666667 12.9444444,3.97222222 C13.3888889,3.97222222 13.5833333,3.94444444 13.9444444,4.19444444 C14.25,4.38888889 14.4444444,4.52777778 14.8333333,4.52777778 C14.8055556,4.33333333 14.4722222,4.41666667 14.5,4.22222222 C14.5,4.05555556 14.6944444,4.27777778 14.7222222,4.27777778 C14.8333333,4.27777778 15.1111111,4.41666667 15.0555556,4.11111111 C15,3.86111111 14.4444444,3.97222222 14.6111111,3.55555556 C14.8611111,3.52777778 14.8055556,3.80555556 14.9722222,3.86111111 C15.1388889,3.91666667 15.3888889,3.69444444 15.4166667,3.55555556 C15.1666667,3.41666667 14.3888889,3.22222222 14.4722222,2.86111111 C14.9722222,3.19444444 15.5,3.52777778 16,3.83333333 C15.5833333,4.19444444 16.3055556,4 16.3333333,4 C16.4444444,4.02777778 16.7777778,4.30555556 16.5555556,4.36111111 C16.3333333,4.41666667 16.2222222,4.11111111 16.0277778,4.33333333 C16.1944444,4.38888889 16.8333333,4.41666667 16.6666667,4.75 C16.6111111,4.88888889 16.1944444,4.86111111 16.0833333,5.13888889 C16.1666667,5.11111111 16.25,5.13888889 16.3611111,5.13888889 C16.1666667,5.44444444 16.4444444,5.63888889 16.6111111,5.88888889 C16.7777778,6.16666667 17.0277778,6.58333333 17.3888889,6.66666667 C18.1388889,6.86111111 18.0555556,5.63888889 18.6111111,5.44444444 C18.7777778,5.38888889 18.9444444,5.41666667 19.1111111,5.38888889 C19.2777778,5.33333333 19.3888889,5.22222222 19.5277778,5.11111111 C19.8333333,4.88888889 20.1111111,4.86111111 20.4444444,4.86111111 C21.5555556,5.97222222 22.4166667,7.33333333 22.9722222,8.86111111 C22.9166667,8.88888889 22.8611111,8.91666667 22.8333333,8.97222222 C22.7777778,9.02777778 22.7777778,9.08333333 22.75,9.16666667 L22.6666667,9.25 C22.6111111,9.36111111 22.6666667,9.5 22.6666667,9.61111111 C22.6666667,9.75 22.6111111,9.86111111 22.6944444,9.97222222 C22.75,10.0833333 22.8611111,10.1944444 22.9722222,10.2777778 C23.0555556,10.3611111 23.1666667,10.4444444 23.2777778,10.4444444 C23.3055556,10.4444444 23.3888889,10.4444444 23.4444444,10.4166667 C23.4722222,10.5833333 23.5,10.75 23.5277778,10.9166667 C23.4166667,11.0277778 23.2777778,11.1666667 23.2222222,11.2777778 C23.1388889,11.4444444 23.1388889,11.5555556 22.9722222,11.6944444 C22.8333333,11.8333333 22.6666667,11.8611111 22.5277778,12.0277778 C22.4166667,12.1944444 22.4166667,12.3055556 22.3333333,12.4722222 C22.2777778,12.5555556 22.1666667,12.5833333 22.1388889,12.6944444 C22.0277778,12.9166667 22.1666667,13.2777778 22.1388889,13.5277778 C22.1388889,13.8333333 22.0277778,14.0833333 22.1944444,14.3611111 C22.3611111,14.6111111 22.6111111,14.8611111 22.8333333,15.0277778 C22.9722222,15.1666667 23.1388889,15.2777778 23.3055556,15.3333333 C22.0833333,19.3333333 18.75,22.5 14.5833333,23.3055556 L14.5833333,23.3055556 Z" id="Shape" sketch:type="MSShapeGroup"></path>
            </g>
        </g>
    </g>
</svg>