<?xml version="1.0" encoding="UTF-8" standalone="no"?>
<svg width="23px" height="24px" viewBox="0 0 23 24" version="1.1" xmlns="http://www.w3.org/2000/svg" xmlns:xlink="http://www.w3.org/1999/xlink" xmlns:sketch="http://www.bohemiancoding.com/sketch/ns">
    <!-- Generator: Sketch 3.4.4 (17249) - http://www.bohemiancoding.com/sketch -->
    <title>map</title>
    <desc>Created with Sketch.</desc>
    <defs></defs>
    <g id="Page-1" stroke="none" stroke-width="1" fill="none" fill-rule="evenodd" sketch:type="MSPage">
        <g id="Artboard-1" sketch:type="MSArtboardGroup" transform="translate(-25.000000, -59.000000)" fill="#000000">
            <g id="map" sketch:type="MSLayerGroup" transform="translate(25.000000, 58.000000)">
                <path d="M7.50272196,24.2474859 C7.80469186,24.4571872 8.2073184,24.4571872 8.5092883,24.2474859 L14.9177606,20.7524639 L21.3262329,24.2474859 C21.6282028,24.4571872 22.0308294,24.4571872 22.3327993,24.2474859 C22.3327993,24.2474859 22.7978516,23.886548 22.7978516,23.5020955 L22.8677455,6.18169875 C22.8374721,5.28666178 22.3129883,5.04099528 21.8295161,4.78021343 C21.3460439,4.51943158 15.4210438,1.28519144 15.4210438,1.28519144 C15.1190739,1.07549012 14.7164474,1.07549012 14.4144775,1.28519144 L8.00600513,4.78021343 L1.59753281,1.28519144 C1.42977175,1.18034078 1.2620107,1.14539056 1.09424964,1.14539056 C0.926488588,1.14539056 0.758727532,1.18034078 0.624518688,1.28519144 C0.322548788,1.45994254 0.121235521,1.80944474 0.121235521,2.19389716 L0.121235521,19.5292062 C0.121235521,19.9136586 0.288996577,20.2631608 0.590966477,20.4379119 L7.50272196,24.2474859 Z M15.8907747,4.04625881 L20.856502,6.59762487 L20.856502,21.4864185 L15.8907747,18.9350525 L15.8907747,4.04625881 L15.8907747,4.04625881 Z M8.97901925,6.59762487 L13.9447465,4.04625881 L13.9447465,18.9350525 L8.97901925,21.4864185 L8.97901925,6.59762487 L8.97901925,6.59762487 Z M2.06726377,4.04625881 L7.03299101,6.59762487 L7.03299101,21.4864185 L2.06726377,18.9350525 L2.06726377,4.04625881 L2.06726377,4.04625881 Z" id="Shape" sketch:type="MSShapeGroup"></path>
            </g>
        </g>
    </g>
</svg>