<?xml version="1.0" encoding="UTF-8" standalone="no"?>
<svg width="26px" height="21px" viewBox="0 0 26 21" version="1.1" xmlns="http://www.w3.org/2000/svg" xmlns:xlink="http://www.w3.org/1999/xlink" xmlns:sketch="http://www.bohemiancoding.com/sketch/ns">
    <!-- Generator: Sketch 3.3.2 (12043) - http://www.bohemiancoding.com/sketch -->
    <title>map</title>
    <desc>Created with Sketch.</desc>
    <defs></defs>
    <g id="Page-1" stroke="none" stroke-width="1" fill="none" fill-rule="evenodd" sketch:type="MSPage">
        <g id="Artboard-1" sketch:type="MSArtboardGroup" transform="translate(-23.000000, -58.000000)" fill="#000000">
            <g id="map" sketch:type="MSLayerGroup" transform="translate(23.000000, 58.000000)">
                <path d="M0.517095667,17.167846 L6.56488172,20.3678882 C6.82910538,20.5440373 7.1814036,20.5440373 7.44562726,20.3678882 L13.0530405,17.4320697 L18.6604538,20.3678882 C18.9246775,20.5440373 19.2769757,20.5440373 19.5411994,20.3678882 L25.5889854,17.167846 C25.8532091,17.0210551 26,16.7274733 26,16.4045332 L26,1.84287361 C26,1.51993358 25.8238509,1.22635173 25.5596272,1.07956081 C25.2954036,0.932769887 24.9724635,0.932769887 24.7082399,1.07956081 L19.1008266,4.01537928 L13.4934133,1.07956081 C13.2291896,0.903411703 12.8768914,0.903411703 12.6126678,1.07956081 L7.00525449,4.01537928 L1.39784121,1.07956081 C1.25105028,0.991486257 1.10425936,0.962128072 0.957468438,0.962128072 C0.810677514,0.962128072 0.663886591,0.991486257 0.546453852,1.07956081 C0.282230189,1.22635173 0.106081081,1.51993358 0.106081081,1.84287361 L0.106081081,16.4045332 C0.106081081,16.7274733 0.252872005,17.0210551 0.517095667,17.167846 L0.517095667,17.167846 Z M19.9522139,5.54200489 L24.2972253,3.3988574 L24.2972253,15.9054441 L19.9522139,18.0485916 L19.9522139,5.54200489 L19.9522139,5.54200489 Z M13.9044279,3.3988574 L18.2494392,5.54200489 L18.2494392,18.0485916 L13.9044279,15.9054441 L13.9044279,3.3988574 L13.9044279,3.3988574 Z M7.85664185,5.54200489 L12.2016532,3.3988574 L12.2016532,15.9054441 L7.85664185,18.0485916 L7.85664185,5.54200489 L7.85664185,5.54200489 Z M1.80885579,3.3988574 L6.15386713,5.54200489 L6.15386713,18.0485916 L1.80885579,15.9054441 L1.80885579,3.3988574 L1.80885579,3.3988574 Z" id="Shape" sketch:type="MSShapeGroup"></path>
            </g>
        </g>
    </g>
</svg>